<svg width="501" height="500" viewBox="0 0 501 500" fill="none" xmlns="http://www.w3.org/2000/svg">
<circle cx="250.303" cy="250" r="250" fill="black"/>
<path opacity="0.19" d="M459.212 150.751H42.1591V350.478H459.212V150.751Z" fill="url(#paint0_radial_19_2116)"/>
<path d="M322.934 214.609C312.432 216.455 301.864 217.903 291.293 219.289C280.719 220.67 270.133 221.959 259.534 223.106C248.936 224.279 238.331 225.388 227.722 226.45C217.112 227.503 206.504 228.568 195.876 229.47L195.697 229.485L195.52 229.436L166.958 221.609L163.904 220.771L166.836 219.566C176.774 215.481 186.704 211.371 196.737 207.477C201.755 205.534 206.797 203.641 211.891 201.876C216.994 200.136 222.143 198.504 227.363 197.112C232.583 195.725 237.854 194.523 243.161 193.532C248.474 192.574 253.806 191.749 259.153 191.091C269.875 189.713 280.684 189.378 291.452 189.428C302.227 189.505 312.983 190.145 323.701 191.117C329.061 191.606 334.41 192.181 339.751 192.896L341.757 193.181C342.456 193.29 343.123 193.436 343.787 193.588C345.114 193.895 346.417 194.24 347.718 194.597C350.319 195.313 352.897 196.077 355.471 196.864C360.612 198.446 365.732 200.092 370.809 201.871C373.348 202.759 375.881 203.667 378.396 204.628C379.653 205.109 380.907 205.604 382.151 206.132C382.772 206.397 383.392 206.669 384.007 206.968C384.313 207.118 384.619 207.273 384.924 207.449C385.077 207.54 385.228 207.632 385.383 207.746C385.46 207.8 385.541 207.87 385.623 207.949C385.669 208.001 385.711 208.047 385.754 208.109C385.78 208.159 385.805 208.213 385.823 208.268C385.842 208.314 385.855 208.381 385.836 208.49C385.776 208.733 385.723 208.715 385.685 208.77L385.55 208.902C385.454 208.993 385.389 209.015 385.304 209.073C385.145 209.181 384.99 209.259 384.834 209.338C384.523 209.507 384.213 209.634 383.901 209.777C383.276 210.045 382.649 210.297 382.019 210.537C380.759 211.019 379.492 211.472 378.221 211.912C375.679 212.791 373.126 213.629 370.567 214.45C365.45 216.09 360.305 217.639 355.156 219.166C360.264 217.506 365.355 215.79 370.433 214.046C372.972 213.173 375.505 212.283 378.021 211.354C379.279 210.889 380.532 210.413 381.771 209.91C382.39 209.66 383.005 209.397 383.608 209.123C383.903 208.98 384.212 208.846 384.489 208.688C384.632 208.612 384.775 208.534 384.891 208.451C384.945 208.412 385.037 208.365 385.056 208.333C385.072 208.317 385.086 208.303 385.102 208.289C385.125 208.286 385.145 208.217 385.087 208.368C385.085 208.436 385.097 208.464 385.09 208.471C385.092 208.488 385.1 208.504 385.112 208.515C385.104 208.512 385.088 208.495 385.08 208.483C385.039 208.45 384.992 208.406 384.932 208.366C384.813 208.282 384.676 208.203 384.539 208.125C384.259 207.971 383.962 207.827 383.664 207.688C383.063 207.411 382.449 207.156 381.83 206.907C380.591 206.411 379.335 205.946 378.075 205.493C375.553 204.588 373.011 203.735 370.461 202.902C365.357 201.251 360.238 199.64 355.089 198.136C352.517 197.384 349.936 196.654 347.349 195.977C346.055 195.641 344.758 195.315 343.464 195.031C342.817 194.892 342.17 194.76 341.54 194.669L339.555 194.412C334.24 193.769 328.899 193.263 323.555 192.844C318.211 192.426 312.859 192.086 307.505 191.873C302.151 191.643 296.795 191.505 291.441 191.473C280.734 191.468 270.018 191.846 259.428 193.253C254.115 193.928 248.832 194.769 243.576 195.739C238.326 196.742 233.124 197.953 227.968 199.346C217.666 202.178 207.578 205.789 197.561 209.617C187.547 213.456 177.605 217.523 167.653 221.566L167.532 219.524L196.061 227.469L195.705 227.436L227.559 224.739C238.177 223.81 248.789 222.834 259.396 221.795C270.001 220.744 280.609 219.721 291.202 218.546C301.795 217.368 312.383 216.137 322.934 214.609ZM442.215 202.154C435.665 201.227 429.121 200.247 422.581 199.253L383.336 193.26L363.696 190.343C357.139 189.385 350.576 188.553 344.026 187.631C330.914 185.774 317.692 184.412 304.425 183.893C291.159 183.371 277.848 183.699 264.622 185.011C251.401 186.341 238.265 188.647 225.412 192.069C212.538 195.475 200.097 200.19 187.753 204.966C175.409 209.787 163.17 214.835 150.993 220.066L151.203 220.001C141.745 221.846 132.378 224.162 123.141 226.903C118.514 228.249 113.941 229.772 109.388 231.339C104.851 232.964 100.336 234.645 95.8874 236.496C86.9863 240.178 78.2666 244.321 69.8921 249.089C65.7097 251.477 61.6 253.997 57.6152 256.705C53.6379 259.425 49.7421 262.256 46.1263 265.479L45.9472 265.638L46.0742 265.841C47.3182 267.829 48.6382 269.749 49.9603 271.672C51.2889 273.589 52.6252 275.5 53.9799 277.397C56.6892 281.194 59.4192 284.973 62.1699 288.737C59.5072 284.91 56.8651 281.068 54.2458 277.213L50.338 271.415C49.0517 269.474 47.7633 267.529 46.5681 265.543L46.5171 265.905C50.1361 262.798 54.0841 260.037 58.0841 257.41C62.0961 254.79 66.2307 252.36 70.4348 250.062C78.843 245.464 87.541 241.408 96.4399 237.858C100.884 236.069 105.393 234.448 109.919 232.884C114.466 231.377 119.028 229.914 123.642 228.629C132.856 226.011 142.191 223.833 151.593 222.005L151.698 221.984L151.802 221.94C163.965 216.769 176.217 211.77 188.546 207.007C200.893 202.282 213.27 197.648 226.014 194.33C238.756 191.01 251.741 188.593 264.851 187.25C277.961 185.9 291.168 185.524 304.348 185.994C310.939 186.229 317.523 186.673 324.094 187.276C330.666 187.896 337.225 188.648 343.785 189.477C350.35 190.326 356.925 191.084 363.474 191.966L383.134 194.659L402.792 197.412L422.466 200.07C429.025 200.944 435.587 201.802 442.156 202.608C448.724 203.423 455.302 204.17 461.899 204.702C455.314 204.025 448.766 203.069 442.215 202.154ZM78.9754 277.463L85.4395 284.255L86.1842 285.05C86.1961 285.062 86.2091 285.073 86.2254 285.083L86.2482 285.097L86.2612 285.103L86.2677 285.107C86.2971 285.123 86.2536 285.167 86.1766 284.788C86.1114 284.496 86.3904 284.11 86.4045 284.125L86.4447 284.082C86.4664 284.059 86.5185 284.024 86.5228 284.021L86.5163 284.022L86.4284 284.065C86.284 284.132 86.1071 284.204 85.9345 284.273C85.2333 284.551 84.4995 284.816 83.77 285.075L79.3586 286.601C76.4082 287.603 73.4307 288.529 70.4598 289.458C67.4877 290.372 64.4874 291.233 61.498 291.91C60.7522 292.072 60.0032 292.218 59.2825 292.302C58.9329 292.349 58.5802 292.349 58.1937 292.356C57.8203 292.371 57.4404 292.361 57.0605 292.351C55.5408 292.304 54.0016 292.166 52.4634 292C49.3893 291.646 46.3076 291.136 43.2574 290.562L43.6655 291.257C43.8392 290.6 44.2343 289.948 44.7 289.35C45.1668 288.754 45.7193 288.183 46.2957 287.694L46.1947 287.749C48.8531 286.671 51.4995 285.557 54.1362 284.422C51.3888 285.259 48.649 286.116 45.9234 287.009L45.8767 287.024L45.8224 287.064C45.1385 287.563 44.5307 288.106 43.9597 288.729C43.4028 289.357 42.8948 290.067 42.5985 290.948L42.4161 291.493L43.0066 291.644C46.0601 292.425 49.1299 293.072 52.2539 293.556C53.8149 293.801 55.3888 293.996 56.9932 294.077C57.3937 294.099 57.7954 294.119 58.2046 294.114C58.5997 294.117 59.0295 294.125 59.4572 294.08C60.2931 294.004 61.0833 293.867 61.8692 293.717C64.9987 293.099 68.0109 292.213 71.0264 291.329C74.0397 290.441 77.0118 289.436 79.9795 288.416C81.4612 287.899 82.9429 287.384 84.4116 286.816C85.1486 286.534 85.8802 286.25 86.6249 285.933C86.8127 285.852 86.9961 285.772 87.2045 285.669L87.3771 285.579L87.4976 285.506C87.5226 285.491 87.592 285.439 87.6333 285.401L87.7017 285.336C87.7256 285.342 88.0056 284.942 87.9459 284.639C87.8775 284.247 87.8276 284.283 87.846 284.291L87.8276 284.267L87.7918 284.219L87.718 284.123L87.5627 283.938C87.4401 283.796 87.3815 283.743 87.312 283.672L87.1036 283.46L86.6867 283.037C84.4745 280.811 82.2135 278.653 79.9665 276.474C75.4454 272.146 70.895 267.849 66.2274 263.669C70.399 268.348 74.6801 272.912 78.9754 277.463ZM85.2973 294.701L93.4081 294.877C98.8149 295 104.222 295.112 109.63 295.185L110.564 295.197L110.297 294.256C109.393 291.065 108.842 287.683 108.497 284.339C108.159 280.98 108.059 277.598 108.214 274.232L108.378 271.711L108.63 269.198C108.861 267.546 109.122 265.917 109.574 264.312C110.443 261.109 111.678 257.993 113.318 255.099C114.995 252.233 116.915 249.501 119.217 247.106C119.768 246.487 120.415 245.962 121.008 245.386L121.915 244.537C122.224 244.262 122.567 244.027 122.89 243.769L124.859 242.256L126.966 240.945C127.319 240.731 127.663 240.497 128.023 240.298L129.138 239.753L131.369 238.666L133.696 237.8L134.86 237.366C135.255 237.242 135.661 237.154 136.06 237.045L138.469 236.421C139.271 236.206 140.107 236.148 140.924 236.002C141.747 235.888 142.565 235.729 143.393 235.649L145.889 235.522C152.536 235.141 159.27 236.383 165.18 239.423C171.094 242.448 176.105 247.169 179.796 252.761C181.626 255.563 183.218 258.561 184.29 261.724C185.323 264.894 185.901 268.262 186.237 271.625C186.889 278.383 186.352 285.238 185.282 291.982C186.788 285.317 187.565 278.441 187.22 271.552C187.039 268.108 186.575 264.673 185.588 261.309C184.56 257.963 183.038 254.812 181.197 251.857C177.492 245.984 172.387 240.85 166.14 237.579C159.926 234.278 152.77 232.827 145.797 233.224L143.177 233.348C142.306 233.426 141.442 233.589 140.574 233.705C139.711 233.854 138.832 233.916 137.982 234.137L135.427 234.786C135.003 234.899 134.573 234.992 134.154 235.122L132.916 235.576L130.438 236.488C129.641 236.858 128.857 237.263 128.067 237.649L126.884 238.237C126.499 238.452 126.135 238.7 125.759 238.93L123.523 240.338L121.434 241.954C121.091 242.229 120.73 242.482 120.402 242.776L119.44 243.68C118.812 244.295 118.13 244.859 117.548 245.517L115.8 247.491C115.207 248.14 114.733 248.885 114.194 249.58L113.41 250.639C113.165 251.003 112.944 251.383 112.709 251.753C112.262 252.508 111.765 253.235 111.362 254.015C109.672 257.093 108.413 260.394 107.542 263.793C107.09 265.488 106.83 267.242 106.614 268.976C106.543 269.839 106.45 270.703 106.395 271.567L106.284 274.165C106.202 277.629 106.384 281.095 106.807 284.529C107.231 287.97 107.895 291.347 108.958 294.701L109.626 293.774C104.22 293.845 98.8127 293.957 93.4048 294.081L85.2941 294.257L77.1833 294.48L85.2973 294.701ZM83.1578 246.331C80.3399 247.598 77.5741 248.977 74.8397 250.411C72.0967 251.832 69.4101 253.354 66.7365 254.902C65.397 255.671 64.0792 256.476 62.7604 257.282C61.435 258.107 60.1574 258.884 58.8103 259.803L55.9869 261.73L59.3943 261.212L68.9553 259.76C72.1368 259.24 75.3217 258.746 78.4989 258.195C81.6783 257.659 84.8523 257.092 88.0241 256.509L92.7731 255.58C94.3546 255.265 95.9416 254.962 97.5026 254.545C94.3091 254.981 91.1058 255.351 87.9036 255.728L78.3133 256.958L68.7327 258.265L59.1663 259.657L59.7503 261.066C62.2079 259.392 64.8944 257.771 67.4931 256.171C70.1124 254.565 72.7632 253.01 75.4237 251.473C78.094 249.954 80.7676 248.435 83.49 247.007C86.1983 245.548 88.9619 244.202 91.7625 242.91C88.8317 243.88 85.9888 245.094 83.1578 246.331ZM197.644 220.593L197.666 221.136C200.277 219.155 203.062 217.266 206.01 216.087C206.753 215.835 207.49 215.585 208.234 215.57C208.59 215.514 209.02 215.54 209.413 215.524C209.812 215.511 210.222 215.526 210.631 215.541C212.265 215.589 213.917 215.716 215.567 215.817L225.49 216.602C228.804 216.857 232.122 217.109 235.457 217.257C232.2 216.525 228.915 215.961 225.621 215.458C223.973 215.212 222.322 214.982 220.668 214.788C219.013 214.583 217.354 214.411 215.689 214.272C214.021 214.132 212.357 214.007 210.665 213.993C210.243 213.983 209.821 213.973 209.388 213.993C208.952 214.016 208.546 213.991 208.077 214.062C207.15 214.123 206.299 214.453 205.486 214.766C203.881 215.455 202.433 216.364 201.069 217.361C199.701 218.356 198.418 219.437 197.2 220.609L196.876 220.921L197.222 221.152C198.614 222.085 200.013 223.008 201.439 223.895C200.195 222.768 198.924 221.676 197.644 220.593ZM304.54 198.137C305.165 199.853 305.836 201.551 306.494 203.252L308.505 208.34C308.843 209.186 309.175 210.036 309.489 210.892C309.83 211.739 310.117 212.6 310.412 213.47C310.16 211.649 309.625 209.882 309.078 208.136C308.525 206.388 307.886 204.673 307.229 202.965C306.551 201.266 305.86 199.572 305.1 197.908C304.348 196.24 303.573 194.583 302.706 192.966C303.273 194.709 303.906 196.424 304.54 198.137Z" fill="white"/>
<path d="M320.679 295.337C316.483 295.337 313.419 294.37 311.486 292.437C309.552 290.503 308.586 287.439 308.586 283.244V259.493C308.586 259.029 308.721 258.661 308.992 258.391C309.282 258.101 309.659 257.956 310.123 257.956C310.587 257.956 310.954 258.101 311.225 258.391C311.495 258.661 311.631 259.029 311.631 259.493V283.244C311.631 285.486 311.921 287.265 312.501 288.58C313.081 289.894 314.028 290.842 315.343 291.422C316.657 292.002 318.436 292.292 320.679 292.292H327.639C329.862 292.292 331.631 292.002 332.946 291.422C334.26 290.842 335.208 289.894 335.788 288.58C336.368 287.265 336.658 285.486 336.658 283.244V259.493C336.658 259.029 336.793 258.661 337.064 258.391C337.354 258.101 337.731 257.956 338.195 257.956C338.659 257.956 339.026 258.101 339.297 258.391C339.567 258.661 339.703 259.029 339.703 259.493V283.244C339.703 287.439 338.736 290.503 336.803 292.437C334.889 294.37 331.834 295.337 327.639 295.337H320.679ZM361.59 295.337C357.395 295.337 354.33 294.37 352.397 292.437C350.464 290.503 349.497 287.439 349.497 283.244V270.049C349.497 265.815 350.454 262.741 352.368 260.827C354.301 258.913 357.356 257.956 361.532 257.956H368.55C372.107 257.956 374.756 258.7 376.496 260.189C378.236 261.658 379.193 264.026 379.367 267.294C379.425 267.816 379.319 268.212 379.048 268.483C378.797 268.753 378.42 268.889 377.917 268.889C376.95 268.889 376.419 268.376 376.322 267.352C376.187 264.954 375.529 263.301 374.35 262.393C373.171 261.465 371.237 261.001 368.55 261.001H361.532C359.309 261.001 357.54 261.291 356.225 261.871C354.91 262.431 353.963 263.379 353.383 264.713C352.822 266.027 352.542 267.806 352.542 270.049V283.244C352.542 285.486 352.832 287.265 353.412 288.58C353.992 289.894 354.939 290.842 356.254 291.422C357.569 292.002 359.347 292.292 361.59 292.292H368.55C371.237 292.292 373.171 291.837 374.35 290.929C375.529 290.001 376.187 288.338 376.322 285.941C376.419 284.916 376.95 284.404 377.917 284.404C378.42 284.404 378.797 284.549 379.048 284.839C379.319 285.109 379.425 285.496 379.367 285.999C379.193 289.266 378.236 291.644 376.496 293.133C374.756 294.602 372.107 295.337 368.55 295.337H361.59ZM385.923 295.192C384.995 294.786 384.715 294.109 385.082 293.162L399.466 259.145C399.776 258.352 400.346 257.956 401.177 257.956H401.351C402.144 257.975 402.705 258.371 403.033 259.145L417.417 293.162C417.804 294.109 417.533 294.786 416.605 295.192C415.658 295.578 415.001 295.308 414.633 294.38L410.776 285.245H391.781L387.924 294.38C387.538 295.308 386.871 295.578 385.923 295.192ZM393.028 282.2H409.5L401.264 262.77L393.028 282.2ZM449.767 295.395C449.342 295.646 448.955 295.733 448.607 295.656C448.259 295.578 447.95 295.337 447.679 294.931L438.167 279.793H427.524V293.8C427.524 294.824 427.021 295.337 426.016 295.337C424.991 295.337 424.479 294.824 424.479 293.8V259.493C424.479 258.468 424.991 257.956 426.016 257.956H439.588C442.894 257.956 445.388 258.806 447.07 260.508C448.771 262.209 449.622 264.713 449.622 268.019V269.759C449.622 272.678 448.955 274.969 447.621 276.632C446.287 278.294 444.315 279.309 441.705 279.677L450.26 293.307C450.801 294.196 450.637 294.892 449.767 295.395ZM427.524 276.748H439.588C442.024 276.748 443.793 276.197 444.895 275.095C446.016 273.973 446.577 272.195 446.577 269.759V268.019C446.577 265.563 446.016 263.785 444.895 262.683C443.793 261.561 442.024 261.001 439.588 261.001H427.524V276.748Z" fill="white"/>
<path d="M253.526 316.006C235.019 316.47 216.512 316.686 198.006 316.866L142.486 317.129L86.9659 316.871L59.2059 316.558L31.4459 316.007L59.2059 315.457L86.9659 315.143L142.486 314.885L198.006 315.148C216.512 315.326 235.019 315.543 253.526 316.006Z" fill="white"/>
<defs>
<radialGradient id="paint0_radial_19_2116" cx="0" cy="0" r="1" gradientUnits="userSpaceOnUse" gradientTransform="translate(250.686 250.615) scale(208.527 99.8632)">
<stop offset="0.0916665" stop-color="#00D4FF"/>
<stop offset="0.9999" stop-color="#0A0D10"/>
<stop offset="1"/>
</radialGradient>
</defs>
</svg>
